Radley-italic-Bold.ufo
<glyph name="exclam" format="1">
  <advance width="530"/>
  <unicode hex="0021"/>
  <outline>
    <contour>
      <point x="322" y="149" type="curve" smooth="yes"/>
      <point x="322" y="233"/>
      <point x="267" y="269"/>
      <point x="204" y="269" type="curve" smooth="yes"/>
      <point x="119" y="269"/>
      <point x="18" y="202"/>
      <point x="18" y="100" type="curve" smooth="yes"/>
      <point x="18" y="17"/>
      <point x="71" y="-17"/>
      <point x="132" y="-17" type="curve" smooth="yes"/>
      <point x="219" y="-17"/>
      <point x="322" y="50"/>
    </contour>
    <contour>
      <point x="256" y="416" type="line"/>
      <point x="529" y="1084" type="line"/>
      <point x="537" y="1107"/>
      <point x="542" y="1133"/>
      <point x="542" y="1159" type="curve" smooth="yes"/>
      <point x="542" y="1208"/>
      <point x="520" y="1253"/>
      <point x="448" y="1253" type="curve" smooth="yes"/>
      <point x="340" y="1253"/>
      <point x="286" y="1139"/>
      <point x="278" y="1084" type="curve"/>
      <point x="197" y="416" type="line"/>
    </contour>
  </outline>
</glyph>
<glyph name="numbersign" format="1">
  <advance width="1136"/>
  <unicode hex="0023"/>
  <outline>
    <contour>
      <point x="723" y="390" type="line"/>
      <point x="690" y="322"/>
      <point x="462" y="-110"/>
      <point x="452" y="-150" type="curve"/>
      <point x="446" y="-184"/>
      <point x="459" y="-239"/>
      <point x="499" y="-239" type="curve" smooth="yes"/>
      <point x="554" y="-239"/>
      <point x="590" y="-198"/>
      <point x="610" y="-149" type="curve"/>
      <point x="688" y="31"/>
      <point x="758" y="211"/>
      <point x="840" y="390" type="curve"/>
      <point x="861" y="390"/>
      <point x="912" y="384"/>
      <point x="963" y="384" type="curve" smooth="yes"/>
      <point x="1032" y="384"/>
      <point x="1102" y="394"/>
      <point x="1112" y="441" type="curve" smooth="yes"/>
      <point x="1124" y="494"/>
      <point x="1049" y="504"/>
      <point x="982" y="504" type="curve" smooth="yes"/>
      <point x="945" y="504"/>
      <point x="910" y="501"/>
      <point x="892" y="501" type="curve"/>
      <point x="976" y="674" type="line"/>
      <point x="998" y="674"/>
      <point x="1041" y="669"/>
      <point x="1084" y="669" type="curve" smooth="yes"/>
      <point x="1149" y="669"/>
      <point x="1216" y="680"/>
      <point x="1227" y="732" type="curve" smooth="yes"/>
      <point x="1238" y="779"/>
      <point x="1173" y="787"/>
      <point x="1113" y="787" type="curve" smooth="yes"/>
      <point x="1080" y="787"/>
      <point x="1050" y="785"/>
      <point x="1033" y="785" type="curve"/>
      <point x="1063" y="843"/>
      <point x="1283" y="1241"/>
      <point x="1290" y="1280" type="curve"/>
      <point x="1302" y="1333"/>
      <point x="1287" y="1362"/>
      <point x="1231" y="1362" type="curve" smooth="yes"/>
      <point x="1165" y="1362"/>
      <point x="1143" y="1333"/>
      <point x="1122" y="1275" type="curve" smooth="yes"/>
      <point x="1062" y="1111"/>
      <point x="984" y="946"/>
      <point x="911" y="785" type="curve"/>
      <point x="642" y="785" type="line"/>
      <point x="671" y="840"/>
      <point x="902" y="1249"/>
      <point x="908" y="1280" type="curve"/>
      <point x="920" y="1332"/>
      <point x="920" y="1362"/>
      <point x="859" y="1362" type="curve" smooth="yes"/>
      <point x="831" y="1362"/>
      <point x="778" y="1352"/>
      <point x="764" y="1316" type="curve"/>
      <point x="707" y="1134"/>
      <point x="613" y="961"/>
      <point x="526" y="785" type="curve"/>
      <point x="507" y="785"/>
      <point x="467" y="789"/>
      <point x="424" y="789" type="curve" smooth="yes"/>
      <point x="358" y="789"/>
      <point x="285" y="779"/>
      <point x="274" y="731" type="curve" smooth="yes"/>
      <point x="263" y="680"/>
      <point x="322" y="670"/>
      <point x="380" y="670" type="curve" smooth="yes"/>
      <point x="415" y="670"/>
      <point x="450" y="674"/>
      <point x="471" y="674" type="curve"/>
      <point x="387" y="501" type="line"/>
      <point x="369" y="501"/>
      <point x="334" y="504"/>
      <point x="299" y="504" type="curve" smooth="yes"/>
      <point x="237" y="504"/>
      <point x="170" y="495"/>
      <point x="159" y="447" type="curve" smooth="yes"/>
      <point x="148" y="396"/>
      <point x="203" y="387"/>
      <point x="256" y="387" type="curve" smooth="yes"/>
      <point x="285" y="387"/>
      <point x="313" y="390"/>
      <point x="332" y="390" type="curve"/>
      <point x="298" y="320"/>
      <point x="80" y="-108"/>
      <point x="70" y="-150" type="curve"/>
      <point x="64" y="-184"/>
      <point x="77" y="-239"/>
      <point x="117" y="-239" type="curve" smooth="yes"/>
      <point x="171" y="-239"/>
      <point x="200" y="-198"/>
      <point x="218" y="-151" type="curve"/>
      <point x="298" y="29"/>
      <point x="368" y="210"/>
      <point x="450" y="390" type="curve"/>
    </contour>
    <contour>
      <point x="859" y="674" type="line"/>
      <point x="778" y="501" type="line"/>
      <point x="502" y="501" type="line"/>
      <point x="585" y="674" type="line"/>
    </contour>
  </outline>
</glyph>
<glyph name="dollar" format="1">
  <advance width="1072"/>
  <unicode hex="0024"/>
  <outline>
    <contour>
      <point x="409" y="-141" type="line"/>
      <point x="398" y="-197"/>
      <point x="415" y="-228"/>
      <point x="435" y="-228" type="curve" smooth="yes"/>
      <point x="457" y="-228"/>
      <point x="491" y="-205"/>
      <point x="508" y="-125" type="curve" smooth="yes"/>
      <point x="530" y="-27" type="line"/>
      <point x="742" y="-16"/>
      <point x="946" y="81"/>
      <point x="997" y="319" type="curve"/>
      <point x="1024" y="455"/>
      <point x="994" y="529"/>
      <point x="829" y="641" type="curve" smooth="yes"/>
      <point x="693" y="732" type="line"/>
      <point x="740" y="943"/>
      <point x="766" y="1053"/>
      <point x="787" y="1136" type="curve"/>
      <point x="892" y="1120"/>
      <point x="978" y="1066"/>
      <point x="978" y="961" type="curve" smooth="yes"/>
      <point x="978" y="928"/>
      <point x="991" y="876"/>
      <point x="1017" y="876" type="curve" smooth="yes"/>
      <point x="1023" y="876"/>
      <point x="1032" y="878"/>
      <point x="1044" y="881" type="curve"/>
      <point x="1068" y="1138" type="line"/>
      <point x="995" y="1173"/>
      <point x="901" y="1196"/>
      <point x="801" y="1201" type="curve"/>
      <point x="808" y="1226"/>
      <point x="813" y="1251"/>
      <point x="819" y="1278" type="curve" smooth="yes"/>
      <point x="844" y="1400"/>
      <point x="832" y="1422"/>
      <point x="804" y="1422" type="curve" smooth="yes"/>
      <point x="764" y="1422"/>
      <point x="749" y="1385"/>
      <point x="727" y="1285" type="curve"/>
      <point x="724" y="1261"/>
      <point x="718" y="1232"/>
      <point x="710" y="1200" type="curve"/>
      <point x="513" y="1187"/>
      <point x="325" y="1096"/>
      <point x="279" y="886" type="curve"/>
      <point x="254" y="763"/>
      <point x="302" y="664"/>
      <point x="431" y="581" type="curve" smooth="yes"/>
      <point x="553" y="502" type="line"/>
      <point x="457" y="45" type="line"/>
      <point x="318" y="72"/>
      <point x="207" y="159"/>
      <point x="216" y="282" type="curve"/>
      <point x="220" y="317"/>
      <point x="216" y="371"/>
      <point x="191" y="371" type="curve" smooth="yes"/>
      <point x="188" y="371"/>
      <point x="180" y="369"/>
      <point x="169" y="366" type="curve"/>
      <point x="88" y="80" type="line"/>
      <point x="171" y="21"/>
      <point x="299" y="-18"/>
      <point x="435" y="-26" type="curve"/>
    </contour>
    <contour>
      <point x="631" y="452" type="curve"/>
      <point x="768" y="364"/>
      <point x="823" y="318"/>
      <point x="802" y="222" type="curve"/>
      <point x="776" y="95"/>
      <point x="663" y="36"/>
      <point x="543" y="36" type="curve"/>
      <point x="575" y="197"/>
      <point x="606" y="335"/>
    </contour>
    <contour>
      <point x="618" y="785" type="line"/>
      <point x="535" y="842" type="line" smooth="yes"/>
      <point x="468" y="887"/>
      <point x="447" y="936"/>
      <point x="459" y="990" type="curve" smooth="yes"/>
      <point x="477" y="1075"/>
      <point x="585" y="1130"/>
      <point x="691" y="1138" type="curve"/>
    </contour>
  </outline>
</glyph>
<glyph name="parenright" format="1">
  <advance width="720"/>
  <unicode hex="0029"/>
  <outline>
    <contour>
      <point x="23" y="-213" type="curve"/>
      <point x="29" y="-227"/>
      <point x="54" y="-283"/>
      <point x="81" y="-283" type="curve" smooth="yes"/>
      <point x="85" y="-283"/>
      <point x="88" y="-282"/>
      <point x="92" y="-280" type="curve" smooth="yes"/>
      <point x="507" y="-33"/>
      <point x="645" y="346"/>
      <point x="645" y="683" type="curve" smooth="yes"/>
      <point x="645" y="953"/>
      <point x="557" y="1196"/>
      <point x="451" y="1323" type="curve"/>
      <point x="445" y="1328"/>
      <point x="437" y="1331"/>
      <point x="429" y="1331" type="curve" smooth="yes"/>
      <point x="408" y="1331"/>
      <point x="383" y="1315"/>
      <point x="364" y="1302" type="curve"/>
      <point x="412" y="1135"/>
      <point x="438" y="969"/>
      <point x="438" y="807" type="curve" smooth="yes"/>
      <point x="438" y="435"/>
      <point x="306" y="83"/>
    </contour>
  </outline>
</glyph>
<glyph name="period" format="1">
  <advance width="432"/>
  <unicode hex="002E"/>
  <outline>
    <contour>
      <point x="49" y="130" type="curve" smooth="yes"/>
      <point x="49" y="30"/>
      <point x="122" y="-20"/>
      <point x="194" y="-20" type="curve" smooth="yes"/>
      <point x="268" y="-20"/>
      <point x="340" y="30"/>
      <point x="340" y="130" type="curve" smooth="yes"/>
      <point x="340" y="231"/>
      <point x="268" y="281"/>
      <point x="194" y="281" type="curve" smooth="yes"/>
      <point x="122" y="281"/>
      <point x="49" y="231"/>
    </contour>
  </outline>
</glyph>
<glyph name="zero" format="1">
  <advance width="1078"/>
  <unicode hex="0030"/>
  <outline>
    <contour>
      <point x="459" y="-20" type="curve" smooth="yes"/>
      <point x="762" y="-20"/>
      <point x="984" y="238"/>
      <point x="984" y="520" type="curve" smooth="yes"/>
      <point x="984" y="741"/>
      <point x="834" y="927"/>
      <point x="566" y="927" type="curve" smooth="yes"/>
      <point x="241" y="927"/>
      <point x="37" y="648"/>
      <point x="37" y="379" type="curve" smooth="yes"/>
      <point x="37" y="148"/>
      <point x="203" y="-20"/>
    </contour>
    <contour>
      <point x="552" y="813" type="curve" smooth="yes"/>
      <point x="703" y="813"/>
      <point x="793" y="707"/>
      <point x="793" y="547" type="curve" smooth="yes"/>
      <point x="793" y="314"/>
      <point x="639" y="93"/>
      <point x="439" y="93" type="curve" smooth="yes"/>
      <point x="293" y="93"/>
      <point x="217" y="226"/>
      <point x="217" y="382" type="curve" smooth="yes"/>
      <point x="217" y="591"/>
      <point x="360" y="813"/>
    </contour>
  </outline>
</glyph>
<glyph name="two" format="1">
  <advance width="1006"/>
  <unicode hex="0032"/>
  <outline>
    <contour>
      <point x="643" y="0" type="line" smooth="yes"/>
      <point x="664" y="0"/>
      <point x="643" y="-71"/>
      <point x="684" y="-72" type="curve" smooth="yes"/>
      <point x="691" y="-72"/>
      <point x="696" y="-69"/>
      <point x="702" y="-60" type="curve" smooth="yes"/>
      <point x="856" y="190" type="line"/>
      <point x="872" y="206"/>
      <point x="893" y="232"/>
      <point x="893" y="253" type="curve" smooth="yes"/>
      <point x="893" y="264"/>
      <point x="888" y="270"/>
      <point x="873" y="270" type="curve" smooth="yes"/>
      <point x="812" y="270"/>
      <point x="776" y="150"/>
      <point x="658" y="150" type="curve" smooth="yes"/>
      <point x="327" y="150" type="line"/>
      <point x="322" y="158" type="line"/>
      <point x="477" y="260" type="line" smooth="yes"/>
      <point x="641" y="368"/>
      <point x="899" y="492"/>
      <point x="899" y="697" type="curve" smooth="yes"/>
      <point x="899" y="864"/>
      <point x="766" y="926"/>
      <point x="611" y="926" type="curve" smooth="yes"/>
      <point x="452" y="926"/>
      <point x="282" y="846"/>
      <point x="192" y="747" type="curve" smooth="yes"/>
      <point x="175" y="728"/>
      <point x="165" y="712"/>
      <point x="165" y="698" type="curve" smooth="yes"/>
      <point x="165" y="680"/>
      <point x="177" y="668"/>
      <point x="194" y="668" type="curve" smooth="yes"/>
      <point x="206" y="668"/>
      <point x="218" y="673"/>
      <point x="233" y="684" type="curve" smooth="yes"/>
      <point x="303" y="738"/>
      <point x="438" y="801"/>
      <point x="543" y="801" type="curve" smooth="yes"/>
      <point x="613" y="801"/>
      <point x="685" y="768"/>
      <point x="685" y="672" type="curve" smooth="yes"/>
      <point x="685" y="555"/>
      <point x="479" y="437"/>
      <point x="436" y="406" type="curve"/>
      <point x="65" y="124" type="line" smooth="yes"/>
      <point x="30" y="97"/>
      <point x="-6" y="60"/>
      <point x="-6" y="33" type="curve" smooth="yes"/>
      <point x="-6" y="14"/>
      <point x="13" y="0"/>
      <point x="64" y="0" type="curve" smooth="yes"/>
    </contour>
  </outline>
</glyph>
<glyph name="A" format="1">
  <advance width="1302"/>
  <unicode hex="0041"/>
  <outline>
    <contour>
      <point x="1118" y="1234" type="line"/>
      <point x="938" y="1234" type="line"/>
      <point x="904" y="226" type="line" smooth="yes"/>
      <point x="900" y="109"/>
      <point x="827" y="104"/>
      <point x="746" y="104" type="curve"/>
      <point x="718" y="0" type="line"/>
      <point x="1239" y="0" type="line"/>
      <point x="1249" y="0"/>
      <point x="1255" y="17"/>
      <point x="1255" y="45" type="curve" smooth="yes"/>
      <point x="1255" y="93"/>
      <point x="1255" y="104"/>
      <point x="1247" y="104" type="curve"/>
      <point x="1121" y="104"/>
      <point x="1088" y="142"/>
      <point x="1090" y="207" type="curve" smooth="yes"/>
    </contour>
    <contour>
      <point x="1118" y="1234" type="line"/>
      <point x="938" y="1234" type="line"/>
      <point x="251" y="226" type="line" smooth="yes"/>
      <point x="174" y="112"/>
      <point x="112" y="104"/>
      <point x="42" y="104" type="curve"/>
      <point x="24" y="0" type="line"/>
      <point x="524" y="0" type="line"/>
      <point x="532" y="96"/>
      <point x="532" y="101"/>
      <point x="532" y="104" type="curve"/>
      <point x="435" y="104"/>
      <point x="398" y="122"/>
      <point x="398" y="152" type="curve" smooth="yes"/>
      <point x="398" y="170"/>
      <point x="410" y="186"/>
      <point x="424" y="207" type="curve" smooth="yes"/>
    </contour>
    <contour>
      <point x="516" y="384" type="line"/>
      <point x="953" y="384" type="line"/>
      <point x="944" y="494" type="line"/>
      <point x="507" y="494" type="line"/>
    </contour>
  </outline>
</glyph>
<glyph name="D" format="1">
  <advance width="1417"/>
  <unicode hex="0044"/>
  <outline>
    <contour>
      <point x="225" y="226" type="line" smooth="yes"/>
      <point x="198" y="109"/>
      <point x="128" y="104"/>
      <point x="54" y="104" type="curve"/>
      <point x="22" y="0" type="line"/>
      <point x="286" y="0" type="line"/>
      <point x="712" y="0" type="line" smooth="yes"/>
      <point x="1101" y="0"/>
      <point x="1373" y="380"/>
      <point x="1373" y="724" type="curve" smooth="yes"/>
      <point x="1373" y="1035"/>
      <point x="1124" y="1233"/>
      <point x="829" y="1233" type="curve" smooth="yes"/>
      <point x="281" y="1233" type="line"/>
      <point x="260" y="1137"/>
      <point x="260" y="1132"/>
      <point x="260" y="1129" type="curve"/>
      <point x="376" y="1129"/>
      <point x="409" y="1099"/>
      <point x="409" y="1051" type="curve" smooth="yes"/>
      <point x="409" y="1043"/>
      <point x="408" y="1035"/>
      <point x="407" y="1026" type="curve"/>
    </contour>
    <contour>
      <point x="839" y="1129" type="line" smooth="yes"/>
      <point x="1071" y="1129"/>
      <point x="1153" y="950"/>
      <point x="1153" y="782" type="curve" smooth="yes"/>
      <point x="1153" y="492"/>
      <point x="957" y="104"/>
      <point x="690" y="104" type="curve" smooth="yes"/>
      <point x="403" y="104" type="line"/>
      <point x="613" y="1032" type="line"/>
      <point x="639" y="1114"/>
      <point x="667" y="1129"/>
      <point x="753" y="1129" type="curve" smooth="yes"/>
    </contour>
  </outline>
</glyph>
<glyph name="J" format="1">
  <advance width="1127"/>
  <unicode hex="004A"/>
  <outline>
    <contour>
      <point x="27" y="-155" type="line" smooth="yes"/>
      <point x="32" y="-272"/>
      <point x="229" y="-306"/>
      <point x="320" y="-306" type="curve" smooth="yes"/>
      <point x="589" y="-306"/>
      <point x="723" y="-125"/>
      <point x="788" y="195" type="curve" smooth="yes"/>
      <point x="879" y="644" type="line"/>
      <point x="1022" y="644" type="line"/>
      <point x="1046" y="767" type="line"/>
      <point x="895" y="767" type="line"/>
      <point x="950" y="1068" type="line"/>
      <point x="1006" y="1103"/>
      <point x="1107" y="1162"/>
      <point x="1107" y="1267" type="curve" smooth="yes"/>
      <point x="1107" y="1284"/>
      <point x="1103" y="1347"/>
      <point x="1028" y="1347" type="curve" smooth="yes"/>
      <point x="982" y="1347"/>
      <point x="944" y="1307"/>
      <point x="922" y="1278" type="curve" smooth="yes"/>
      <point x="878" y="1220"/>
      <point x="856" y="1179"/>
      <point x="838" y="1137" type="curve"/>
      <point x="816" y="1144"/>
      <point x="788" y="1152"/>
      <point x="676" y="1269" type="curve" smooth="yes"/>
      <point x="630" y="1326"/>
      <point x="560" y="1356"/>
      <point x="486" y="1356" type="curve" smooth="yes"/>
      <point x="342" y="1356"/>
      <point x="233" y="1247"/>
      <point x="233" y="1117" type="curve" smooth="yes"/>
      <point x="233" y="1050"/>
      <point x="271" y="931"/>
      <point x="375" y="931" type="curve" smooth="yes"/>
      <point x="440" y="931"/>
      <point x="480" y="972"/>
      <point x="480" y="1037" type="curve"/>
      <point x="475" y="1150"/>
      <point x="345" y="1106"/>
      <point x="328" y="1141" type="curve"/>
      <point x="342" y="1222"/>
      <point x="412" y="1272"/>
      <point x="470" y="1220" type="curve" smooth="yes"/>
      <point x="585" y="1112" type="line" smooth="yes"/>
      <point x="641" y="1071"/>
      <point x="700" y="1057"/>
      <point x="768" y="1054" type="curve"/>
      <point x="707" y="770" type="line"/>
      <point x="491" y="770" type="line"/>
      <point x="468" y="644" type="line"/>
      <point x="671" y="644" type="line"/>
      <point x="548" y="80" type="line" smooth="yes"/>
      <point x="505" y="-117"/>
      <point x="446" y="-187"/>
      <point x="362" y="-187" type="curve" smooth="yes"/>
      <point x="291" y="-187"/>
      <point x="209" y="-64"/>
      <point x="126" y="-64" type="curve" smooth="yes"/>
      <point x="76" y="-64"/>
      <point x="27" y="-92"/>
      <point x="27" y="-153" type="curve" smooth="yes"/>
    </contour>
  </outline>
</glyph>
<glyph name="L" format="1">
  <advance width="1105"/>
  <unicode hex="004C"/>
  <outline>
    <contour>
      <point x="442" y="104" type="line" smooth="yes"/>
      <point x="428" y="104"/>
      <point x="411" y="110"/>
      <point x="411" y="133" type="curve" smooth="yes"/>
      <point x="411" y="136"/>
      <point x="411" y="140"/>
      <point x="412" y="144" type="curve" smooth="yes"/>
      <point x="609" y="1008" type="line" smooth="yes"/>
      <point x="636" y="1125"/>
      <point x="705" y="1130"/>
      <point x="781" y="1130" type="curve"/>
      <point x="812" y="1234" type="line"/>
      <point x="282" y="1234" type="line"/>
      <point x="261" y="1138"/>
      <point x="261" y="1133"/>
      <point x="261" y="1130" type="curve"/>
      <point x="377" y="1130"/>
      <point x="410" y="1100"/>
      <point x="410" y="1052" type="curve" smooth="yes"/>
      <point x="410" y="1044"/>
      <point x="409" y="1036"/>
      <point x="408" y="1027" type="curve"/>
      <point x="225" y="226" type="line" smooth="yes"/>
      <point x="198" y="109"/>
      <point x="128" y="104"/>
      <point x="54" y="104" type="curve"/>
      <point x="22" y="0" type="line"/>
      <point x="954" y="0" type="line"/>
      <point x="1066" y="300" type="line" smooth="yes"/>
      <point x="1068" y="304"/>
      <point x="1068" y="308"/>
      <point x="1068" y="312" type="curve" smooth="yes"/>
      <point x="1066" y="326"/>
      <point x="1015" y="326"/>
      <point x="961" y="326" type="curve" smooth="yes"/>
      <point x="941" y="326"/>
      <point x="914" y="318"/>
      <point x="911" y="300" type="curve"/>
      <point x="878" y="183"/>
      <point x="795" y="104"/>
      <point x="646" y="104" type="curve" smooth="yes"/>
    </contour>
  </outline>
</glyph>
<glyph name="O" format="1">
  <advance width="1220"/>
  <unicode hex="004F"/>
  <outline>
    <contour>
      <point x="545" y="-21" type="curve" smooth="yes"/>
      <point x="905" y="-21"/>
      <point x="1162" y="343"/>
      <point x="1162" y="672" type="curve" smooth="yes"/>
      <point x="1162" y="1013"/>
      <point x="920" y="1223"/>
      <point x="655" y="1223" type="curve" smooth="yes"/>
      <point x="305" y="1223"/>
      <point x="59" y="883"/>
      <point x="59" y="537" type="curve" smooth="yes"/>
      <point x="59" y="218"/>
      <point x="296" y="-21"/>
    </contour>
    <contour>
      <point x="661" y="1105" type="curve" smooth="yes"/>
      <point x="853" y="1105"/>
      <point x="943" y="936"/>
      <point x="943" y="728" type="curve" smooth="yes"/>
      <point x="943" y="454"/>
      <point x="776" y="115"/>
      <point x="533" y="115" type="curve" smooth="yes"/>
      <point x="357" y="115"/>
      <point x="274" y="280"/>
      <point x="274" y="486" type="curve" smooth="yes"/>
      <point x="274" y="761"/>
      <point x="433" y="1105"/>
    </contour>
  </outline>
</glyph>
<glyph name="U" format="1">
  <advance width="1454"/>
  <unicode hex="0055"/>
  <outline>
    <contour>
      <point x="432" y="1008" type="line" smooth="yes"/>
      <point x="458" y="1125"/>
      <point x="522" y="1130"/>
      <point x="597" y="1130" type="curve" smooth="yes"/>
      <point x="620" y="1130"/>
      <point x="634" y="1171"/>
      <point x="634" y="1199" type="curve" smooth="yes"/>
      <point x="634" y="1218"/>
      <point x="628" y="1234"/>
      <point x="610" y="1234" type="curve" smooth="yes"/>
      <point x="109" y="1234" type="line" smooth="yes"/>
      <point x="84" y="1234"/>
      <point x="77" y="1203"/>
      <point x="77" y="1175" type="curve" smooth="yes"/>
      <point x="77" y="1152"/>
      <point x="80" y="1130"/>
      <point x="95" y="1130" type="curve" smooth="yes"/>
      <point x="198" y="1130"/>
      <point x="236" y="1116"/>
      <point x="236" y="1065" type="curve" smooth="yes"/>
      <point x="236" y="1054"/>
      <point x="234" y="1042"/>
      <point x="231" y="1027" type="curve" smooth="yes"/>
      <point x="126" y="550" type="line" smooth="yes"/>
      <point x="114" y="500"/>
      <point x="109" y="452"/>
      <point x="109" y="407" type="curve" smooth="yes"/>
      <point x="109" y="140"/>
      <point x="303" y="-21"/>
      <point x="522" y="-21" type="curve" smooth="yes"/>
      <point x="747" y="-21"/>
      <point x="998" y="150"/>
      <point x="1090" y="550" type="curve" smooth="yes"/>
      <point x="1190" y="1008" type="line" smooth="yes"/>
      <point x="1217" y="1125"/>
      <point x="1280" y="1130"/>
      <point x="1355" y="1130" type="curve" smooth="yes"/>
      <point x="1378" y="1130"/>
      <point x="1392" y="1171"/>
      <point x="1392" y="1199" type="curve" smooth="yes"/>
      <point x="1392" y="1218"/>
      <point x="1385" y="1234"/>
      <point x="1368" y="1234" type="curve" smooth="yes"/>
      <point x="920" y="1234" type="line" smooth="yes"/>
      <point x="895" y="1234"/>
      <point x="888" y="1203"/>
      <point x="888" y="1175" type="curve" smooth="yes"/>
      <point x="888" y="1152"/>
      <point x="891" y="1130"/>
      <point x="906" y="1130" type="curve" smooth="yes"/>
      <point x="1009" y="1130"/>
      <point x="1047" y="1116"/>
      <point x="1047" y="1065" type="curve" smooth="yes"/>
      <point x="1047" y="1054"/>
      <point x="1045" y="1042"/>
      <point x="1042" y="1027" type="curve" smooth="yes"/>
      <point x="927" y="490" type="line" smooth="yes"/>
      <point x="872" y="244"/>
      <point x="721" y="142"/>
      <point x="582" y="142" type="curve" smooth="yes"/>
      <point x="441" y="142"/>
      <point x="313" y="248"/>
      <point x="313" y="413" type="curve" smooth="yes"/>
      <point x="313" y="437"/>
      <point x="316" y="463"/>
      <point x="322" y="490" type="curve" smooth="yes"/>
    </contour>
  </outline>
</glyph>
<glyph name="V" format="1">
  <advance width="1343"/>
  <unicode hex="0056"/>
  <outline>
    <contour>
      <point x="205" y="0" type="line"/>
      <point x="385" y="0" type="line"/>
      <point x="399" y="1008" type="line"/>
      <point x="402" y="1125"/>
      <point x="475" y="1130"/>
      <point x="556" y="1130" type="curve"/>
      <point x="565" y="1234" type="line"/>
      <point x="44" y="1234" type="line"/>
      <point x="44" y="1206"/>
      <point x="43" y="1185"/>
      <point x="43" y="1171" type="curve" smooth="yes"/>
      <point x="43" y="1135"/>
      <point x="44" y="1132"/>
      <point x="45" y="1130" type="curve"/>
      <point x="152" y="1130"/>
      <point x="197" y="1104"/>
      <point x="209" y="1061" type="curve"/>
      <point x="210" y="1051"/>
      <point x="211" y="1039"/>
      <point x="213" y="1027" type="curve"/>
    </contour>
    <contour>
      <point x="205" y="0" type="line"/>
      <point x="385" y="0" type="line"/>
      <point x="1072" y="1008" type="line"/>
      <point x="1144" y="1125"/>
      <point x="1210" y="1130"/>
      <point x="1280" y="1130" type="curve"/>
      <point x="1319" y="1234" type="line"/>
      <point x="819" y="1234" type="line"/>
      <point x="790" y="1138"/>
      <point x="790" y="1133"/>
      <point x="790" y="1130" type="curve"/>
      <point x="886" y="1130"/>
      <point x="923" y="1113"/>
      <point x="923" y="1083" type="curve" smooth="yes"/>
      <point x="923" y="1067"/>
      <point x="913" y="1050"/>
      <point x="899" y="1027" type="curve"/>
    </contour>
  </outline>
</glyph>
<glyph name="Y" format="1">
  <advance width="1322"/>
  <unicode hex="0059"/>
  <outline>
    <contour>
      <point x="151" y="53" type="curve" smooth="yes"/>
      <point x="151" y="39"/>
      <point x="169" y="11"/>
      <point x="179" y="11" type="curve" smooth="yes"/>
      <point x="684" y="11" type="line" smooth="yes"/>
      <point x="713" y="11"/>
      <point x="731" y="74"/>
      <point x="731" y="106" type="curve" smooth="yes"/>
      <point x="731" y="202"/>
      <point x="597" y="135"/>
      <point x="597" y="267" type="curve" smooth="yes"/>
      <point x="597" y="309"/>
      <point x="612" y="339"/>
      <point x="638" y="389" type="curve"/>
      <point x="820" y="618"/>
      <point x="1131" y="1017"/>
      <point x="1139" y="1021" type="curve"/>
      <point x="1226" y="1083"/>
      <point x="1293" y="1033"/>
      <point x="1293" y="1123" type="curve" smooth="yes"/>
      <point x="1293" y="1141"/>
      <point x="1289" y="1161"/>
      <point x="1285" y="1189" type="curve"/>
      <point x="793" y="1189" type="line" smooth="yes"/>
      <point x="765" y="1189"/>
      <point x="758" y="1164"/>
      <point x="758" y="1139" type="curve" smooth="yes"/>
      <point x="758" y="1007"/>
      <point x="869" y="1087"/>
      <point x="869" y="1001" type="curve" smooth="yes"/>
      <point x="869" y="1000"/>
      <point x="868" y="1000"/>
      <point x="868" y="1000" type="curve"/>
      <point x="834" y="929"/>
      <point x="726" y="780"/>
      <point x="685" y="726" type="curve" smooth="yes"/>
      <point x="661" y="694"/>
      <point x="578" y="596"/>
      <point x="570" y="596" type="curve" smooth="yes"/>
      <point x="543" y="596"/>
      <point x="528" y="661"/>
      <point x="527" y="664" type="curve" smooth="yes"/>
      <point x="465" y="1021" type="line"/>
      <point x="465" y="1039"/>
      <point x="609" y="1038"/>
      <point x="609" y="1145" type="curve" smooth="yes"/>
      <point x="609" y="1156" type="line" smooth="yes"/>
      <point x="609" y="1161"/>
      <point x="604" y="1189"/>
      <point x="583" y="1189" type="curve" smooth="yes"/>
      <point x="57" y="1189" type="line" smooth="yes"/>
      <point x="46" y="1189"/>
      <point x="44" y="1175"/>
      <point x="44" y="1157" type="curve" smooth="yes"/>
      <point x="44" y="1056"/>
      <point x="80" y="1046"/>
      <point x="114" y="1046" type="curve" smooth="yes"/>
      <point x="123" y="1046"/>
      <point x="133" y="1047"/>
      <point x="143" y="1047" type="curve" smooth="yes"/>
      <point x="166" y="1047"/>
      <point x="191" y="1044"/>
      <point x="213" y="1021" type="curve" smooth="yes"/>
      <point x="325" y="906"/>
      <point x="383" y="424"/>
      <point x="386" y="383" type="curve" smooth="yes"/>
      <point x="387" y="371"/>
      <point x="388" y="359"/>
      <point x="388" y="348" type="curve" smooth="yes"/>
      <point x="388" y="124"/>
      <point x="151" y="234"/>
    </contour>
  </outline>
</glyph>
<glyph name="bracketright" format="1">
  <advance width="883"/>
  <unicode hex="005D"/>
  <outline>
    <contour>
      <point x="127" y="-299" type="curve"/>
      <point x="435" y="-275" type="line"/>
      <point x="800" y="1283" type="line"/>
      <point x="437" y="1304" type="line" smooth="yes"/>
      <point x="386" y="1307"/>
      <point x="366" y="1242"/>
      <point x="366" y="1214" type="curve" smooth="yes"/>
      <point x="366" y="1197"/>
      <point x="375" y="1184"/>
      <point x="394" y="1177" type="curve" smooth="yes"/>
      <point x="415" y="1168"/>
      <point x="519" y="1140"/>
      <point x="542" y="1135" type="curve"/>
      <point x="254" y="-121" type="line"/>
      <point x="88" y="-151"/>
      <point x="49" y="-150"/>
      <point x="49" y="-233" type="curve" smooth="yes"/>
      <point x="49" y="-281"/>
      <point x="85" y="-299"/>
    </contour>
  </outline>
</glyph>
<glyph name="asciicircum" format="1">
  <advance width="302"/>
  <unicode hex="005E"/>
  <outline>
    <contour>
      <point x="-92" y="1286" type="line" smooth="yes"/>
      <point x="-85" y="1205"/>
      <point x="-20" y="1138"/>
      <point x="63" y="1138" type="curve" smooth="yes"/>
      <point x="130" y="1138"/>
      <point x="164" y="1189"/>
      <point x="164" y="1249" type="curve" smooth="yes"/>
      <point x="164" y="1319"/>
      <point x="116" y="1409"/>
      <point x="31" y="1409" type="curve" smooth="yes"/>
      <point x="-22" y="1409"/>
      <point x="-92" y="1348"/>
      <point x="-92" y="1291" type="curve" smooth="yes"/>
    </contour>
  </outline>
</glyph>
<glyph name="e" format="1">
  <advance width="946"/>
  <unicode hex="0065"/>
  <outline>
    <contour>
      <point x="457" y="-21" type="curve" smooth="yes"/>
      <point x="652" y="-21"/>
      <point x="802" y="119"/>
      <point x="900" y="261" type="curve"/>
      <point x="900" y="261"/>
      <point x="818" y="317"/>
      <point x="803" y="320" type="curve"/>
      <point x="720" y="216"/>
      <point x="636" y="109"/>
      <point x="475" y="109" type="curve" smooth="yes"/>
      <point x="347" y="109"/>
      <point x="257" y="222"/>
      <point x="257" y="327" type="curve" smooth="yes"/>
      <point x="257" y="335"/>
      <point x="258" y="343"/>
      <point x="258" y="350" type="curve"/>
      <point x="430" y="357"/>
      <point x="888" y="397"/>
      <point x="888" y="658" type="curve" smooth="yes"/>
      <point x="888" y="843"/>
      <point x="710" y="926"/>
      <point x="563" y="926" type="curve" smooth="yes"/>
      <point x="276" y="926"/>
      <point x="46" y="700"/>
      <point x="46" y="416" type="curve" smooth="yes"/>
      <point x="46" y="178"/>
      <point x="223" y="-21"/>
    </contour>
    <contour>
      <point x="552" y="820" type="curve" smooth="yes"/>
      <point x="622" y="820"/>
      <point x="685" y="758"/>
      <point x="685" y="680" type="curve" smooth="yes"/>
      <point x="685" y="520"/>
      <point x="403" y="439"/>
      <point x="280" y="439" type="curve" smooth="yes"/>
      <point x="274" y="439"/>
      <point x="259" y="440"/>
      <point x="259" y="440" type="curve"/>
      <point x="268" y="593"/>
      <point x="376" y="820"/>
    </contour>
  </outline>
</glyph>
<glyph name="h" format="1">
  <advance width="1263"/>
  <unicode hex="0068"/>
  <outline>
    <contour>
      <point x="50" y="201" type="line" smooth="yes"/>
      <point x="40" y="167"/>
      <point x="30" y="133"/>
      <point x="30" y="98" type="curve" smooth="yes"/>
      <point x="30" y="22"/>
      <point x="82" y="-21"/>
      <point x="145" y="-21" type="curve" smooth="yes"/>
      <point x="187" y="-21"/>
      <point x="222" y="20"/>
      <point x="242" y="50" type="curve" smooth="yes"/>
      <point x="316" y="158"/>
      <point x="407" y="286"/>
      <point x="438" y="332" type="curve" smooth="yes"/>
      <point x="512" y="441"/>
      <point x="742" y="790"/>
      <point x="852" y="790" type="curve" smooth="yes"/>
      <point x="877" y="790"/>
      <point x="887" y="773"/>
      <point x="887" y="753" type="curve" smooth="yes"/>
      <point x="887" y="722"/>
      <point x="868" y="678"/>
      <point x="863" y="664" type="curve" smooth="yes"/>
      <point x="820" y="548"/>
      <point x="701" y="315"/>
      <point x="701" y="157" type="curve" smooth="yes"/>
      <point x="701" y="59"/>
      <point x="757" y="-20"/>
      <point x="858" y="-20" type="curve" smooth="yes"/>
      <point x="1005" y="-21"/>
      <point x="1088" y="80"/>
      <point x="1202" y="234" type="curve" smooth="yes"/>
      <point x="1233" y="276" type="line"/>
      <point x="1233" y="276"/>
      <point x="1218" y="292"/>
      <point x="1150" y="348" type="curve"/>
      <point x="1124" y="311" type="line" smooth="yes"/>
      <point x="1045" y="199"/>
      <point x="991" y="126"/>
      <point x="937" y="126" type="curve" smooth="yes"/>
      <point x="917" y="126"/>
      <point x="910" y="144"/>
      <point x="910" y="174" type="curve" smooth="yes"/>
      <point x="910" y="318"/>
      <point x="1077" y="561"/>
      <point x="1077" y="751" type="curve" smooth="yes"/>
      <point x="1077" y="833"/>
      <point x="1026" y="924"/>
      <point x="886" y="924" type="curve" smooth="yes"/>
      <point x="667" y="924"/>
      <point x="386" y="437"/>
      <point x="286" y="285" type="curve"/>
      <point x="274" y="290" type="line"/>
      <point x="554" y="1278" type="line" smooth="yes"/>
      <point x="564" y="1314"/>
      <point x="569" y="1344"/>
      <point x="569" y="1365" type="curve" smooth="yes"/>
      <point x="569" y="1400"/>
      <point x="554" y="1415"/>
      <point x="517" y="1415" type="curve" smooth="yes"/>
      <point x="510" y="1415"/>
      <point x="504" y="1415"/>
      <point x="496" y="1414" type="curve" smooth="yes"/>
      <point x="188" y="1378" type="line" smooth="yes"/>
      <point x="158" y="1374"/>
      <point x="146" y="1311"/>
      <point x="146" y="1292" type="curve" smooth="yes"/>
      <point x="146" y="1271"/>
      <point x="163" y="1263"/>
      <point x="190" y="1263" type="curve" smooth="yes"/>
      <point x="349" y="1263" type="line"/>
    </contour>
  </outline>
</glyph>
<glyph name="i" format="1">
  <advance width="725"/>
  <unicode hex="0069"/>
  <outline>
    <contour>
      <point x="349" y="-20" type="curve" smooth="yes"/>
      <point x="477" y="-20"/>
      <point x="564" y="79"/>
      <point x="625" y="168" type="curve" smooth="yes"/>
      <point x="695" y="271" type="line"/>
      <point x="602" y="335" type="line"/>
      <point x="535" y="235" type="line" smooth="yes"/>
      <point x="483" y="157"/>
      <point x="445" y="124"/>
      <point x="415" y="124" type="curve" smooth="yes"/>
      <point x="385" y="124"/>
      <point x="378" y="150"/>
      <point x="378" y="179" type="curve" smooth="yes"/>
      <point x="378" y="212"/>
      <point x="387" y="250"/>
      <point x="393" y="264" type="curve"/>
      <point x="498" y="588" type="line" smooth="yes"/>
      <point x="513" y="635"/>
      <point x="523" y="688"/>
      <point x="523" y="739" type="curve" smooth="yes"/>
      <point x="523" y="838"/>
      <point x="484" y="926"/>
      <point x="360" y="926" type="curve" smooth="yes"/>
      <point x="226" y="926"/>
      <point x="136" y="797"/>
      <point x="32" y="657" type="curve"/>
      <point x="112" y="598" type="line"/>
      <point x="237" y="772"/>
      <point x="280" y="806"/>
      <point x="303" y="806" type="curve" smooth="yes"/>
      <point x="329" y="806"/>
      <point x="342" y="789"/>
      <point x="342" y="755" type="curve" smooth="yes"/>
      <point x="342" y="731"/>
      <point x="332" y="703"/>
      <point x="323" y="676" type="curve" smooth="yes"/>
      <point x="222" y="392" type="line" smooth="yes"/>
      <point x="198" y="323"/>
      <point x="174" y="251"/>
      <point x="174" y="179" type="curve" smooth="yes"/>
      <point x="174" y="75"/>
      <point x="239" y="-20"/>
    </contour>
    <contour>
      <point x="637" y="1181" type="line"/>
      <point x="629" y="1268"/>
      <point x="563" y="1312"/>
      <point x="500" y="1312" type="curve" smooth="yes"/>
      <point x="441" y="1312"/>
      <point x="392" y="1274"/>
      <point x="392" y="1200" type="curve" smooth="yes"/>
      <point x="392" y="1108"/>
      <point x="471" y="1057"/>
      <point x="535" y="1057" type="curve" smooth="yes"/>
      <point x="592" y="1057"/>
      <point x="637" y="1093"/>
      <point x="637" y="1171" type="curve" smooth="yes"/>
    </contour>
  </outline>
</glyph>
<glyph name="n" format="1">
  <advance width="1428"/>
  <unicode hex="006E"/>
  <outline>
    <contour>
      <point x="308" y="-20" type="curve" smooth="yes"/>
      <point x="351" y="-20"/>
      <point x="388" y="19"/>
      <point x="409" y="50" type="curve" smooth="yes"/>
      <point x="484" y="160"/>
      <point x="568" y="293"/>
      <point x="600" y="341" type="curve" smooth="yes"/>
      <point x="669" y="443"/>
      <point x="883" y="760"/>
      <point x="997" y="760" type="curve" smooth="yes"/>
      <point x="1023" y="760"/>
      <point x="1031" y="742"/>
      <point x="1031" y="722" type="curve" smooth="yes"/>
      <point x="1031" y="637"/>
      <point x="865" y="367"/>
      <point x="865" y="156" type="curve" smooth="yes"/>
      <point x="865" y="59"/>
      <point x="921" y="-20"/>
      <point x="1022" y="-20" type="curve" smooth="yes"/>
      <point x="1169" y="-21"/>
      <point x="1252" y="80"/>
      <point x="1366" y="234" type="curve" smooth="yes"/>
      <point x="1397" y="276" type="line"/>
      <point x="1397" y="276"/>
      <point x="1382" y="292"/>
      <point x="1314" y="348" type="curve"/>
      <point x="1288" y="311" type="line" smooth="yes"/>
      <point x="1209" y="199"/>
      <point x="1161" y="126"/>
      <point x="1107" y="126" type="curve" smooth="yes"/>
      <point x="1087" y="126"/>
      <point x="1080" y="144"/>
      <point x="1080" y="174" type="curve" smooth="yes"/>
      <point x="1080" y="318"/>
      <point x="1241" y="561"/>
      <point x="1241" y="751" type="curve" smooth="yes"/>
      <point x="1241" y="833"/>
      <point x="1190" y="924"/>
      <point x="1050" y="924" type="curve" smooth="yes"/>
      <point x="831" y="924"/>
      <point x="552" y="433"/>
      <point x="452" y="281" type="curve"/>
      <point x="430" y="292" type="line"/>
      <point x="465" y="380"/>
      <point x="561" y="627"/>
      <point x="561" y="762" type="curve" smooth="yes"/>
      <point x="561" y="858"/>
      <point x="496" y="906"/>
      <point x="415" y="906" type="curve" smooth="yes"/>
      <point x="261" y="906"/>
      <point x="143" y="760"/>
      <point x="69" y="648" type="curve" smooth="yes"/>
      <point x="34" y="595" type="line"/>
      <point x="117" y="522" type="line"/>
      <point x="201" y="651"/>
      <point x="271" y="767"/>
      <point x="331" y="767" type="curve" smooth="yes"/>
      <point x="352" y="767"/>
      <point x="357" y="747"/>
      <point x="357" y="728" type="curve" smooth="yes"/>
      <point x="357" y="621"/>
      <point x="271" y="381"/>
      <point x="214" y="205" type="curve" smooth="yes"/>
      <point x="203" y="173"/>
      <point x="194" y="136"/>
      <point x="194" y="100" type="curve" smooth="yes"/>
      <point x="194" y="32"/>
      <point x="234" y="-20"/>
    </contour>
  </outline>
</glyph>
<glyph name="u" format="1">
  <advance width="1415"/>
  <unicode hex="0075"/>
  <outline>
    <contour>
      <point x="872" y="105" type="curve" smooth="yes"/>
      <point x="884" y="29"/>
      <point x="951" y="-20"/>
      <point x="1024" y="-20" type="curve" smooth="yes"/>
      <point x="1164" y="-20"/>
      <point x="1254" y="99"/>
      <point x="1326" y="192" type="curve" smooth="yes"/>
      <point x="1339" y="208"/>
      <point x="1379" y="248"/>
      <point x="1379" y="283" type="curve" smooth="yes"/>
      <point x="1379" y="284"/>
      <point x="1376" y="295"/>
      <point x="1375" y="298" type="curve"/>
      <point x="1318" y="345" type="line"/>
      <point x="1312" y="346" type="line"/>
      <point x="1286" y="346"/>
      <point x="1197" y="127"/>
      <point x="1099" y="127" type="curve" smooth="yes"/>
      <point x="1072" y="127"/>
      <point x="1070" y="156"/>
      <point x="1068" y="175" type="curve" smooth="yes"/>
      <point x="1068" y="177"/>
      <point x="1068" y="179"/>
      <point x="1069" y="180" type="curve"/>
      <point x="1070" y="186"/>
      <point x="1088" y="246"/>
      <point x="1090" y="252" type="curve" smooth="yes"/>
      <point x="1149" y="454"/>
      <point x="1226" y="724"/>
      <point x="1226" y="788" type="curve" smooth="yes"/>
      <point x="1226" y="837"/>
      <point x="1198" y="899"/>
      <point x="1138" y="899" type="curve" smooth="yes"/>
      <point x="1028" y="899"/>
      <point x="948" y="723"/>
      <point x="895" y="646" type="curve"/>
      <point x="787" y="463"/>
      <point x="697" y="377"/>
      <point x="577" y="240" type="curve" smooth="yes"/>
      <point x="574" y="237"/>
      <point x="555" y="215"/>
      <point x="550" y="212" type="curve" smooth="yes"/>
      <point x="525" y="193"/>
      <point x="466" y="138"/>
      <point x="423" y="138" type="curve" smooth="yes"/>
      <point x="385" y="138"/>
      <point x="393" y="185"/>
      <point x="385" y="206" type="curve"/>
      <point x="414" y="303"/>
      <point x="456" y="409"/>
      <point x="489" y="502" type="curve" smooth="yes"/>
      <point x="515" y="575"/>
      <point x="563" y="668"/>
      <point x="563" y="759" type="curve" smooth="yes"/>
      <point x="563" y="871"/>
      <point x="489" y="926"/>
      <point x="400" y="926" type="curve" smooth="yes"/>
      <point x="235" y="926"/>
      <point x="103" y="744"/>
      <point x="40" y="620" type="curve" smooth="yes"/>
      <point x="38" y="617"/>
      <point x="37" y="607"/>
      <point x="37" y="602" type="curve" smooth="yes"/>
      <point x="39" y="581"/>
      <point x="79" y="540"/>
      <point x="105" y="540" type="curve" smooth="yes"/>
      <point x="153" y="540"/>
      <point x="215" y="779"/>
      <point x="315" y="779" type="curve" smooth="yes"/>
      <point x="338" y="779"/>
      <point x="347" y="767"/>
      <point x="350" y="742" type="curve"/>
      <point x="350" y="734"/>
      <point x="349" y="729"/>
      <point x="346" y="721" type="curve" smooth="yes"/>
      <point x="295" y="553"/>
      <point x="229" y="385"/>
      <point x="177" y="218" type="curve" smooth="yes"/>
      <point x="174" y="210"/>
      <point x="173" y="201"/>
      <point x="173" y="193" type="curve" smooth="yes"/>
      <point x="173" y="81"/>
      <point x="244" y="-20"/>
      <point x="360" y="-20" type="curve" smooth="yes"/>
      <point x="619" y="-20"/>
      <point x="816" y="425"/>
      <point x="966" y="587" type="curve"/>
      <point x="966" y="578"/>
      <point x="967" y="580"/>
      <point x="967" y="576" type="curve" smooth="yes"/>
      <point x="967" y="560"/>
      <point x="946" y="490"/>
      <point x="936" y="449" type="curve" smooth="yes"/>
      <point x="915" y="365"/>
      <point x="868" y="258"/>
      <point x="868" y="157" type="curve" smooth="yes"/>
      <point x="868" y="139"/>
      <point x="870" y="119"/>
    </contour>
  </outline>
</glyph>
<glyph name="v" format="1">
  <advance width="1139"/>
  <unicode hex="0076"/>
  <outline>
    <contour>
      <point x="598" y="-21" type="curve" smooth="yes"/>
      <point x="908" y="-21"/>
      <point x="1088" y="287"/>
      <point x="1088" y="579" type="curve" smooth="yes"/>
      <point x="1088" y="612"/>
      <point x="1070" y="925"/>
      <point x="911" y="925" type="curve" smooth="yes"/>
      <point x="850" y="925"/>
      <point x="809" y="887"/>
      <point x="809" y="831" type="curve" smooth="yes"/>
      <point x="809" y="708"/>
      <point x="933" y="610"/>
      <point x="944" y="484" type="curve" smooth="yes"/>
      <point x="945" y="474"/>
      <point x="945" y="463"/>
      <point x="945" y="453" type="curve" smooth="yes"/>
      <point x="945" y="286"/>
      <point x="821" y="150"/>
      <point x="647" y="150" type="curve" smooth="yes"/>
      <point x="532" y="150"/>
      <point x="436" y="209"/>
      <point x="436" y="351" type="curve" smooth="yes"/>
      <point x="436" y="488"/>
      <point x="543" y="609"/>
      <point x="588" y="725" type="curve" smooth="yes"/>
      <point x="600" y="758"/>
      <point x="631" y="828"/>
      <point x="631" y="882" type="curve" smooth="yes"/>
      <point x="631" y="925"/>
      <point x="631" y="926"/>
      <point x="560" y="926" type="curve" smooth="yes"/>
      <point x="548" y="926"/>
      <point x="534" y="925"/>
      <point x="528" y="917" type="curve"/>
      <point x="528" y="876"/>
      <point x="517" y="844"/>
      <point x="474" y="844" type="curve" smooth="yes"/>
      <point x="392" y="844"/>
      <point x="327" y="925"/>
      <point x="239" y="925" type="curve" smooth="yes"/>
      <point x="140" y="925"/>
      <point x="45" y="844"/>
      <point x="45" y="741" type="curve" smooth="yes"/>
      <point x="45" y="686"/>
      <point x="88" y="618"/>
      <point x="151" y="618" type="curve" smooth="yes"/>
      <point x="189" y="618"/>
      <point x="210" y="648"/>
      <point x="210" y="683" type="curve" smooth="yes"/>
      <point x="210" y="716"/>
      <point x="182" y="741"/>
      <point x="182" y="772" type="curve" smooth="yes"/>
      <point x="182" y="779"/>
      <point x="195" y="789"/>
      <point x="203" y="789" type="curve" smooth="yes"/>
      <point x="244" y="789"/>
      <point x="397" y="706"/>
      <point x="439" y="684" type="curve"/>
      <point x="375" y="552"/>
      <point x="237" y="453"/>
      <point x="237" y="290" type="curve" smooth="yes"/>
      <point x="237" y="102"/>
      <point x="439" y="-21"/>
    </contour>
  </outline>
</glyph>
<glyph name="w" format="1">
  <advance width="1741"/>
  <unicode hex="0077"/>
  <outline>
    <contour>
      <point x="1074" y="773" type="curve" smooth="yes"/>
      <point x="1131" y="773"/>
      <point x="1139" y="705"/>
      <point x="1139" y="657" type="curve" smooth="yes"/>
      <point x="1139" y="547"/>
      <point x="1091" y="442"/>
      <point x="1041" y="373" type="curve"/>
      <point x="1016" y="438"/>
      <point x="993" y="535"/>
      <point x="993" y="625" type="curve" smooth="yes"/>
      <point x="993" y="705"/>
      <point x="1015" y="773"/>
    </contour>
    <contour>
      <point x="627" y="819" type="curve" smooth="yes"/>
      <point x="629" y="828"/>
      <point x="632" y="852"/>
      <point x="632" y="876" type="curve" smooth="yes"/>
      <point x="632" y="924"/>
      <point x="635" y="926"/>
      <point x="561" y="926" type="curve" smooth="yes"/>
      <point x="549" y="926"/>
      <point x="535" y="925"/>
      <point x="529" y="917" type="curve"/>
      <point x="529" y="876"/>
      <point x="518" y="844"/>
      <point x="475" y="844" type="curve" smooth="yes"/>
      <point x="393" y="844"/>
      <point x="328" y="925"/>
      <point x="240" y="925" type="curve" smooth="yes"/>
      <point x="141" y="925"/>
      <point x="46" y="844"/>
      <point x="46" y="741" type="curve" smooth="yes"/>
      <point x="46" y="686"/>
      <point x="89" y="618"/>
      <point x="152" y="618" type="curve" smooth="yes"/>
      <point x="190" y="618"/>
      <point x="211" y="648"/>
      <point x="211" y="683" type="curve" smooth="yes"/>
      <point x="211" y="716"/>
      <point x="183" y="741"/>
      <point x="183" y="772" type="curve" smooth="yes"/>
      <point x="183" y="779"/>
      <point x="196" y="789"/>
      <point x="204" y="789" type="curve" smooth="yes"/>
      <point x="245" y="789"/>
      <point x="398" y="706"/>
      <point x="440" y="684" type="curve"/>
      <point x="423" y="653"/>
      <point x="308" y="475"/>
      <point x="308" y="294" type="curve" smooth="yes"/>
      <point x="308" y="109"/>
      <point x="449" y="-19"/>
      <point x="615" y="-19" type="curve" smooth="yes"/>
      <point x="756" y="-19"/>
      <point x="869" y="80"/>
      <point x="967" y="151" type="curve"/>
      <point x="967" y="151"/>
      <point x="1086" y="-20"/>
      <point x="1267" y="-20" type="curve" smooth="yes"/>
      <point x="1533" y="-20"/>
      <point x="1689" y="318"/>
      <point x="1689" y="577" type="curve" smooth="yes"/>
      <point x="1689" y="594"/>
      <point x="1689" y="611"/>
      <point x="1687" y="627" type="curve" smooth="yes"/>
      <point x="1685" y="650"/>
      <point x="1649" y="926"/>
      <point x="1504" y="926" type="curve" smooth="yes"/>
      <point x="1439" y="926"/>
      <point x="1411" y="877"/>
      <point x="1411" y="820" type="curve" smooth="yes"/>
      <point x="1411" y="679"/>
      <point x="1538" y="611"/>
      <point x="1538" y="443" type="curve" smooth="yes"/>
      <point x="1538" y="297"/>
      <point x="1446" y="167"/>
      <point x="1288" y="167" type="curve" smooth="yes"/>
      <point x="1178" y="167"/>
      <point x="1122" y="225"/>
      <point x="1094" y="276" type="curve"/>
      <point x="1165" y="388"/>
      <point x="1244" y="511"/>
      <point x="1244" y="651" type="curve" smooth="yes"/>
      <point x="1244" y="696"/>
      <point x="1220" y="926"/>
      <point x="1071" y="926" type="curve" smooth="yes"/>
      <point x="908" y="926"/>
      <point x="835" y="749"/>
      <point x="835" y="564" type="curve" smooth="yes"/>
      <point x="835" y="543"/>
      <point x="836" y="523"/>
      <point x="838" y="502" type="curve" smooth="yes"/>
      <point x="844" y="434"/>
      <point x="882" y="314"/>
      <point x="899" y="276" type="curve"/>
      <point x="850" y="203"/>
      <point x="751" y="139"/>
      <point x="656" y="139" type="curve" smooth="yes"/>
      <point x="538" y="139"/>
      <point x="495" y="271"/>
      <point x="495" y="352" type="curve" smooth="yes"/>
      <point x="495" y="514"/>
      <point x="590" y="681"/>
    </contour>
  </outline>
</glyph>
<glyph name="y" format="1">
  <advance width="1180"/>
  <unicode hex="0079"/>
  <outline>
    <contour>
      <point x="24" y="-265" type="curve"/>
      <point x="42" y="-363"/>
      <point x="157" y="-399"/>
      <point x="237" y="-399" type="curve" smooth="yes"/>
      <point x="604" y="-399"/>
      <point x="1134" y="272"/>
      <point x="1134" y="661" type="curve" smooth="yes"/>
      <point x="1134" y="738"/>
      <point x="1101" y="925"/>
      <point x="962" y="925" type="curve" smooth="yes"/>
      <point x="900" y="925"/>
      <point x="871" y="889"/>
      <point x="871" y="835" type="curve" smooth="yes"/>
      <point x="871" y="723"/>
      <point x="954" y="636"/>
      <point x="954" y="519" type="curve" smooth="yes"/>
      <point x="954" y="382"/>
      <point x="875" y="273"/>
      <point x="804" y="168" type="curve" smooth="yes"/>
      <point x="795" y="155"/>
      <point x="791" y="125"/>
      <point x="769" y="125" type="curve"/>
      <point x="681" y="332"/>
      <point x="633" y="566"/>
      <point x="565" y="774" type="curve" smooth="yes"/>
      <point x="541" y="848"/>
      <point x="491" y="925"/>
      <point x="406" y="925" type="curve" smooth="yes"/>
      <point x="264" y="925"/>
      <point x="199" y="788"/>
      <point x="129" y="692" type="curve"/>
      <point x="120" y="674"/>
      <point x="97" y="659"/>
      <point x="97" y="637" type="curve" smooth="yes"/>
      <point x="97" y="632"/>
      <point x="99" y="625"/>
      <point x="100" y="625" type="curve"/>
      <point x="158" y="576" type="line"/>
      <point x="159" y="576"/>
      <point x="165" y="574"/>
      <point x="168" y="574" type="curve" smooth="yes"/>
      <point x="218" y="574"/>
      <point x="246" y="760"/>
      <point x="340" y="760" type="curve" smooth="yes"/>
      <point x="395" y="760"/>
      <point x="468" y="439"/>
      <point x="478" y="408" type="curve" smooth="yes"/>
      <point x="486" y="380"/>
      <point x="527" y="252"/>
      <point x="535" y="227" type="curve" smooth="yes"/>
      <point x="555" y="163"/>
      <point x="613" y="42"/>
      <point x="613" y="-31" type="curve" smooth="yes"/>
      <point x="613" y="-104"/>
      <point x="429" y="-197"/>
      <point x="360" y="-197" type="curve" smooth="yes"/>
      <point x="290" y="-197"/>
      <point x="221" y="-165"/>
      <point x="152" y="-165" type="curve" smooth="yes"/>
      <point x="95" y="-165"/>
      <point x="22" y="-185"/>
      <point x="22" y="-249" type="curve" smooth="yes"/>
      <point x="22" y="-255"/>
      <point x="24" y="-260"/>
    </contour>
    <contour>
      <point x="894" y="-302" type="curve"/>
      <point x="893" y="-302"/>
      <point x="893" y="-303"/>
      <point x="893" y="-304" type="curve" smooth="yes"/>
      <point x="893" y="-305"/>
      <point x="894" y="-306"/>
      <point x="895" y="-306" type="curve"/>
      <point x="895" y="-305"/>
      <point x="895" y="-302"/>
    </contour>
  </outline>
</glyph>
<glyph name="acute" format="1">
  <advance width="968"/>
  <unicode hex="00B4"/>
  <outline>
    <contour>
      <point x="893" y="1442" type="curve"/>
      <point x="906" y="1455"/>
      <point x="908" y="1471"/>
      <point x="905" y="1488" type="curve" smooth="yes"/>
      <point x="896" y="1528"/>
      <point x="849" y="1570"/>
      <point x="807" y="1570" type="curve" smooth="yes"/>
      <point x="786" y="1570"/>
      <point x="765" y="1560"/>
      <point x="753" y="1536" type="curve" smooth="yes"/>
      <point x="706" y="1449"/>
      <point x="605" y="1262"/>
      <point x="546" y="1152" type="curve"/>
      <point x="542" y="1142"/>
      <point x="540" y="1131"/>
      <point x="541" y="1122" type="curve"/>
      <point x="545" y="1107"/>
      <point x="554" y="1096"/>
      <point x="569" y="1096" type="curve" smooth="yes"/>
      <point x="579" y="1096"/>
      <point x="593" y="1102"/>
      <point x="607" y="1116" type="curve"/>
      <point x="661" y="1177"/>
      <point x="810" y="1349"/>
    </contour>
  </outline>
</glyph>
<glyph name="AE" format="1">
  <advance width="2170"/>
  <unicode hex="00C6"/>
  <outline>
    <contour>
      <point x="950" y="1233" type="line"/>
      <point x="925" y="1131" type="line"/>
      <point x="1022" y="1131"/>
      <point x="1078" y="1087"/>
      <point x="1027" y="1034" type="curve" smooth="yes"/>
      <point x="235" y="226" type="line"/>
      <point x="128" y="109"/>
      <point x="61" y="104"/>
      <point x="-8" y="104" type="curve"/>
      <point x="-46" y="0" type="line"/>
      <point x="480" y="0" type="line"/>
      <point x="506" y="96"/>
      <point x="508" y="101"/>
      <point x="508" y="104" type="curve"/>
      <point x="411" y="104"/>
      <point x="381" y="122"/>
      <point x="389" y="152" type="curve" smooth="yes"/>
      <point x="394" y="170"/>
      <point x="411" y="186"/>
      <point x="432" y="207" type="curve" smooth="yes"/>
      <point x="676" y="462" type="line"/>
      <point x="1024" y="462" type="line"/>
      <point x="931" y="226" type="line"/>
      <point x="889" y="109"/>
      <point x="826" y="104"/>
      <point x="760" y="104" type="curve"/>
      <point x="710" y="0" type="line"/>
      <point x="1735" y="0" type="line"/>
      <point x="1867" y="300" type="line"/>
      <point x="1870" y="304"/>
      <point x="1870" y="308"/>
      <point x="1871" y="312" type="curve" smooth="yes"/>
      <point x="1874" y="340"/>
      <point x="1850" y="352"/>
      <point x="1821" y="352" type="curve" smooth="yes"/>
      <point x="1781" y="352"/>
      <point x="1726" y="330"/>
      <point x="1712" y="300" type="curve"/>
      <point x="1663" y="183"/>
      <point x="1575" y="104"/>
      <point x="1444" y="104" type="curve" smooth="yes"/>
      <point x="1133" y="104" type="line" smooth="yes"/>
      <point x="1117" y="104"/>
      <point x="1100" y="106"/>
      <point x="1106" y="138" type="curve"/>
      <point x="1106" y="145"/>
      <point x="1110" y="154"/>
      <point x="1114" y="166" type="curve"/>
      <point x="1302" y="641" type="line"/>
      <point x="1599" y="641" type="line" smooth="yes"/>
      <point x="1671" y="641"/>
      <point x="1683" y="502"/>
      <point x="1684" y="488" type="curve"/>
      <point x="1768" y="488" type="line"/>
      <point x="1863" y="852" type="line"/>
      <point x="1766" y="852" type="line"/>
      <point x="1766" y="852"/>
      <point x="1730" y="736"/>
      <point x="1606" y="736" type="curve" smooth="yes"/>
      <point x="1340" y="736" type="line"/>
      <point x="1472" y="1068" type="line"/>
      <point x="1494" y="1126"/>
      <point x="1520" y="1130"/>
      <point x="1539" y="1130" type="curve" smooth="yes"/>
      <point x="1840" y="1130" type="line" smooth="yes"/>
      <point x="1931" y="1130"/>
      <point x="1936" y="1062"/>
      <point x="1944" y="924" type="curve" smooth="yes"/>
      <point x="1946" y="895"/>
      <point x="1969" y="884"/>
      <point x="1993" y="884" type="curve" smooth="yes"/>
      <point x="2029" y="884"/>
      <point x="2072" y="914"/>
      <point x="2075" y="934" type="curve"/>
      <point x="2140" y="1233" type="line"/>
    </contour>
    <contour>
      <point x="1265" y="1046" type="line"/>
      <point x="1068" y="572" type="line"/>
      <point x="781" y="572" type="line"/>
      <point x="1235" y="1046" type="line"/>
    </contour>
  </outline>
</glyph>
<glyph name="dotlessi" format="1">
  <advance width="634"/>
  <unicode hex="0131"/>
  <outline>
    <contour>
      <point x="76" y="122" type="curve"/>
      <point x="93" y="28"/>
      <point x="173" y="-26"/>
      <point x="263" y="-26" type="curve" smooth="yes"/>
      <point x="377" y="-26"/>
      <point x="604" y="154"/>
      <point x="604" y="257" type="curve" smooth="yes"/>
      <point x="604" y="284"/>
      <point x="556" y="312"/>
      <point x="531" y="312" type="curve" smooth="yes"/>
      <point x="473" y="312"/>
      <point x="430" y="113"/>
      <point x="322" y="113" type="curve" smooth="yes"/>
      <point x="303" y="113"/>
      <point x="283" y="113"/>
      <point x="283" y="170" type="curve" smooth="yes"/>
      <point x="283" y="214"/>
      <point x="304" y="252"/>
      <point x="319" y="294" type="curve"/>
      <point x="372" y="464"/>
      <point x="458" y="634"/>
      <point x="458" y="746" type="curve" smooth="yes"/>
      <point x="458" y="812"/>
      <point x="406" y="896"/>
      <point x="332" y="919" type="curve"/>
      <point x="324" y="919"/>
      <point x="286" y="920"/>
      <point x="279" y="920" type="curve" smooth="yes"/>
      <point x="123" y="920"/>
      <point x="35" y="783"/>
      <point x="-42" y="680" type="curve" smooth="yes"/>
      <point x="-45" y="675"/>
      <point x="-47" y="671"/>
      <point x="-47" y="666" type="curve" smooth="yes"/>
      <point x="-47" y="638"/>
      <point x="-5" y="606"/>
      <point x="20" y="606" type="curve" smooth="yes"/>
      <point x="69" y="606"/>
      <point x="113" y="773"/>
      <point x="212" y="773" type="curve" smooth="yes"/>
      <point x="234" y="773"/>
      <point x="242" y="758"/>
      <point x="242" y="732" type="curve" smooth="yes"/>
      <point x="242" y="693"/>
      <point x="206" y="619"/>
      <point x="183" y="549" type="curve" smooth="yes"/>
      <point x="148" y="443"/>
      <point x="71" y="305"/>
      <point x="72" y="173" type="curve" smooth="yes"/>
      <point x="72" y="155"/>
      <point x="74" y="137"/>
    </contour>
  </outline>
</glyph>
<glyph name="ff" format="1">
  <advance width="1381"/>
  <unicode hex="FB00"/>
  <outline>
    <contour>
      <point x="1394" y="826" type="line"/>
      <point x="1411" y="891" type="line" smooth="yes"/>
      <point x="1430" y="965"/>
      <point x="1472" y="1135"/>
      <point x="1542" y="1135" type="curve" smooth="yes"/>
      <point x="1621" y="1135"/>
      <point x="1683" y="983"/>
      <point x="1770" y="983" type="curve" smooth="yes"/>
      <point x="1824" y="983"/>
      <point x="1864" y="1012"/>
      <point x="1864" y="1061" type="curve" smooth="yes"/>
      <point x="1864" y="1215"/>
      <point x="1700" y="1251"/>
      <point x="1610" y="1251" type="curve" smooth="yes"/>
      <point x="1372" y="1251"/>
      <point x="1263" y="1105"/>
      <point x="1208" y="895" type="curve" smooth="yes"/>
      <point x="1190" y="826" type="line"/>
      <point x="977" y="826" type="line"/>
      <point x="942" y="685" type="line"/>
      <point x="1155" y="685" type="line"/>
      <point x="1056" y="293" type="line"/>
      <point x="968" y="-63"/>
      <point x="955" y="-198"/>
      <point x="844" y="-198" type="curve" smooth="yes"/>
      <point x="788" y="-198"/>
      <point x="756" y="-57"/>
      <point x="665" y="-57" type="curve" smooth="yes"/>
      <point x="614" y="-57"/>
      <point x="563" y="-80"/>
      <point x="563" y="-133" type="curve" smooth="yes"/>
      <point x="563" y="-263"/>
      <point x="722" y="-303"/>
      <point x="795" y="-303" type="curve" smooth="yes"/>
      <point x="1166" y="-303"/>
      <point x="1186" y="11"/>
      <point x="1270" y="336" type="curve" smooth="yes"/>
      <point x="1360" y="685" type="line"/>
      <point x="1592" y="685" type="line"/>
      <point x="1628" y="826" type="line"/>
    </contour>
    <contour>
      <point x="858" y="826" type="line"/>
      <point x="875" y="891" type="line" smooth="yes"/>
      <point x="894" y="965"/>
      <point x="936" y="1135"/>
      <point x="1006" y="1135" type="curve" smooth="yes"/>
      <point x="1094" y="1135"/>
      <point x="1165" y="983"/>
      <point x="1264" y="983" type="curve" smooth="yes"/>
      <point x="1318" y="983"/>
      <point x="1358" y="1012"/>
      <point x="1358" y="1061" type="curve" smooth="yes"/>
      <point x="1358" y="1215"/>
      <point x="1176" y="1251"/>
      <point x="1074" y="1251" type="curve" smooth="yes"/>
      <point x="836" y="1251"/>
      <point x="727" y="1105"/>
      <point x="672" y="895" type="curve" smooth="yes"/>
      <point x="654" y="826" type="line"/>
      <point x="441" y="826" type="line"/>
      <point x="406" y="685" type="line"/>
      <point x="619" y="685" type="line"/>
      <point x="520" y="293" type="line"/>
      <point x="432" y="-63"/>
      <point x="419" y="-198"/>
      <point x="308" y="-198" type="curve" smooth="yes"/>
      <point x="252" y="-198"/>
      <point x="220" y="-57"/>
      <point x="129" y="-57" type="curve" smooth="yes"/>
      <point x="78" y="-57"/>
      <point x="27" y="-80"/>
      <point x="27" y="-133" type="curve" smooth="yes"/>
      <point x="27" y="-263"/>
      <point x="186" y="-303"/>
      <point x="259" y="-303" type="curve" smooth="yes"/>
      <point x="630" y="-303"/>
      <point x="650" y="11"/>
      <point x="734" y="336" type="curve" smooth="yes"/>
      <point x="824" y="685" type="line"/>
      <point x="1086" y="685" type="line"/>
      <point x="1122" y="826" type="line"/>
    </contour>
  </outline>
</glyph>
<glyph name="ffl" format="1">
  <advance width="2289"/>
  <unicode hex="FB04"/>
  <outline>
    <contour>
      <point x="27" y="-257" type="curve"/>
      <point x="48" y="-376"/>
      <point x="211" y="-406"/>
      <point x="297" y="-406" type="curve" smooth="yes"/>
      <point x="397" y="-406"/>
      <point x="453" y="-297"/>
      <point x="539" y="-297" type="curve" smooth="yes"/>
      <point x="630" y="-297"/>
      <point x="733" y="-385"/>
      <point x="844" y="-385" type="curve" smooth="yes"/>
      <point x="1421" y="-385"/>
      <point x="1304" y="668"/>
      <point x="1444" y="668" type="curve" smooth="yes"/>
      <point x="1780" y="668" type="line" smooth="yes"/>
      <point x="1815" y="668"/>
      <point x="1812" y="608"/>
      <point x="1812" y="600" type="curve" smooth="yes"/>
      <point x="1812" y="462"/>
      <point x="1717" y="350"/>
      <point x="1717" y="212" type="curve" smooth="yes"/>
      <point x="1717" y="97"/>
      <point x="1756" y="-6"/>
      <point x="1879" y="-6" type="curve" smooth="yes"/>
      <point x="1973" y="-6"/>
      <point x="2187" y="178"/>
      <point x="2187" y="269" type="curve" smooth="yes"/>
      <point x="2187" y="300"/>
      <point x="2154" y="333"/>
      <point x="2123" y="333" type="curve" smooth="yes"/>
      <point x="2121" y="333"/>
      <point x="2114" y="332"/>
      <point x="2112" y="332" type="curve"/>
      <point x="2089" y="297"/>
      <point x="1998" y="170"/>
      <point x="1941" y="170" type="curve"/>
      <point x="1932" y="205"/>
      <point x="1931" y="241"/>
      <point x="1931" y="277" type="curve" smooth="yes"/>
      <point x="1931" y="523"/>
      <point x="2057" y="798"/>
      <point x="2122" y="1007" type="curve" smooth="yes"/>
      <point x="2136" y="1052"/>
      <point x="2176" y="1111"/>
      <point x="2176" y="1174" type="curve" smooth="yes"/>
      <point x="2176" y="1196"/>
      <point x="2174" y="1227"/>
      <point x="2144" y="1237" type="curve"/>
      <point x="1976" y="1242"/>
      <point x="1813" y="1241"/>
      <point x="1797" y="1241" type="curve" smooth="yes"/>
      <point x="1738" y="1241"/>
      <point x="1705" y="1236"/>
      <point x="1622" y="1215" type="curve" smooth="yes"/>
      <point x="1560" y="1199"/>
      <point x="1495" y="1130"/>
      <point x="1437" y="1130" type="curve" smooth="yes"/>
      <point x="1335" y="1130"/>
      <point x="1210" y="1237"/>
      <point x="1092" y="1237" type="curve" smooth="yes"/>
      <point x="770" y="1237"/>
      <point x="648" y="796"/>
      <point x="623" y="796" type="curve" smooth="yes"/>
      <point x="433" y="796" type="line" smooth="yes"/>
      <point x="410" y="796"/>
      <point x="401" y="735"/>
      <point x="401" y="722" type="curve"/>
      <point x="418" y="624"/>
      <point x="611" y="742"/>
      <point x="611" y="611" type="curve" smooth="yes"/>
      <point x="611" y="441"/>
      <point x="449" y="-89"/>
      <point x="400" y="-215" type="curve"/>
      <point x="380" y="-234"/>
      <point x="366" y="-238"/>
      <point x="340" y="-238" type="curve" smooth="yes"/>
      <point x="269" y="-238"/>
      <point x="205" y="-150"/>
      <point x="126" y="-150" type="curve" smooth="yes"/>
      <point x="72" y="-150"/>
      <point x="25" y="-185"/>
      <point x="25" y="-239" type="curve" smooth="yes"/>
      <point x="25" y="-246"/>
      <point x="27" y="-253"/>
    </contour>
    <contour>
      <point x="647" y="-68" type="line"/>
      <point x="658" y="-24"/>
      <point x="711" y="183"/>
      <point x="723" y="227" type="curve"/>
      <point x="741" y="307"/>
      <point x="812" y="668"/>
      <point x="854" y="668" type="curve" smooth="yes"/>
      <point x="1191" y="668" type="line"/>
      <point x="1202" y="606" type="line"/>
      <point x="1145" y="404"/>
      <point x="1113" y="216"/>
      <point x="1057" y="-4" type="curve" smooth="yes"/>
      <point x="1034" y="-94"/>
      <point x="997" y="-257"/>
      <point x="880" y="-257" type="curve" smooth="yes"/>
      <point x="859" y="-257"/>
      <point x="845" y="-250"/>
      <point x="824" y="-237" type="curve" smooth="yes"/>
      <point x="775" y="-207"/>
      <point x="659" y="-134"/>
      <point x="658" y="-130" type="curve" smooth="yes"/>
    </contour>
    <contour>
      <point x="884" y="849" type="curve" smooth="yes"/>
      <point x="882" y="858"/>
      <point x="880" y="869"/>
      <point x="880" y="879" type="curve" smooth="yes"/>
      <point x="880" y="983"/>
      <point x="961" y="1091"/>
      <point x="1064" y="1091" type="curve" smooth="yes"/>
      <point x="1155" y="1091"/>
      <point x="1202" y="1047"/>
      <point x="1283" y="985" type="curve"/>
      <point x="1288" y="978"/>
      <point x="1288" y="959"/>
      <point x="1288" y="959" type="curve"/>
      <point x="1288" y="960" type="line"/>
      <point x="1288" y="955" type="line" smooth="yes"/>
      <point x="1288" y="911"/>
      <point x="1255" y="796"/>
      <point x="1212" y="796" type="curve" smooth="yes"/>
      <point x="917" y="796" type="line" smooth="yes"/>
      <point x="891" y="796"/>
      <point x="886" y="836"/>
    </contour>
    <contour>
      <point x="1481" y="817" type="curve"/>
      <point x="1478" y="843"/>
      <point x="1470" y="862"/>
      <point x="1470" y="876" type="curve" smooth="yes"/>
      <point x="1470" y="1004"/>
      <point x="1608" y="1092"/>
      <point x="1726" y="1092" type="curve" smooth="yes"/>
      <point x="1803" y="1092"/>
      <point x="1899" y="1069"/>
      <point x="1899" y="942" type="curve" smooth="yes"/>
      <point x="1899" y="809"/>
      <point x="1776" y="794"/>
      <point x="1646" y="794" type="curve" smooth="yes"/>
      <point x="1591" y="794"/>
      <point x="1545" y="796"/>
    </contour>
  </outline>
</glyph>
